<?xml version="1.0" standalone="no"?>
<!DOCTYPE svg PUBLIC "-//W3C//DTD SVG 20010904//EN"
 "http://www.w3.org/TR/2001/REC-SVG-20010904/DTD/svg10.dtd">
<svg version="1.0" xmlns="http://www.w3.org/2000/svg"
 width="700.000000pt" height="700.000000pt" viewBox="0 0 700.000000 700.000000"
 preserveAspectRatio="xMidYMid meet">
<metadata>
Created by potrace 1.11, written by Peter Selinger 2001-2013
</metadata>
<g transform="translate(0.000000,700.000000) scale(0.100000,-0.100000)"
fill="#000000" stroke="none">
<path d="M0 3500 l0 -3500 3500 0 3500 0 0 3500 0 3500 -3500 0 -3500 0 0
-3500z m3551 1133 l454 -297 96 -7 c125 -9 181 -39 208 -112 15 -39 15 -765 0
-804 -15 -42 -68 -92 -109 -103 -47 -13 -1353 -13 -1400 0 -41 11 -94 61 -109
103 -15 39 -15 765 0 804 13 35 45 70 84 91 26 15 86 18 483 22 l452 5 -337
219 c-186 120 -348 230 -360 243 -46 49 -11 133 55 133 20 0 156 -83 483 -297z
m-2522 -1787 c91 -47 119 -87 85 -120 -23 -24 -50 -20 -99 14 -157 108 -376
22 -431 -169 -59 -202 78 -401 278 -401 57 0 76 5 135 35 81 43 116 43 121 1
11 -90 -213 -165 -364 -121 -167 48 -273 186 -282 366 -7 138 36 250 128 333
81 73 153 97 280 93 81 -3 103 -7 149 -31z m345 2 c12 -17 16 -50 16 -145 l0
-122 48 27 c39 23 59 27 122 27 88 -1 140 -23 188 -80 44 -55 52 -95 52 -282
0 -178 -4 -193 -46 -193 -48 0 -54 20 -54 186 0 108 -4 164 -14 187 -43 103
-191 126 -265 42 l-31 -36 0 -167 c0 -135 -3 -172 -16 -190 -18 -26 -50 -28
-76 -5 -17 15 -18 40 -18 375 0 229 4 366 10 379 15 27 64 25 84 -3z m1604 10
c9 -9 12 -73 12 -225 0 -117 3 -213 8 -213 4 0 63 50 131 110 125 111 155 127
181 95 22 -27 2 -59 -85 -134 -46 -40 -89 -79 -95 -87 -9 -9 13 -42 89 -136
73 -89 101 -130 101 -150 0 -31 -30 -53 -59 -43 -10 3 -63 61 -117 130 l-99
124 -27 -26 c-26 -25 -28 -32 -28 -113 0 -91 -8 -110 -46 -110 -52 0 -54 16
-54 398 0 224 4 360 10 373 12 22 59 26 78 7z m2610 0 c15 -15 15 -51 0 -66
-9 -9 -73 -12 -225 -12 l-213 0 0 -125 0 -125 152 0 c127 0 154 -3 170 -17 22
-20 23 -41 1 -65 -14 -16 -34 -18 -170 -18 l-153 0 0 -153 c0 -122 -3 -157
-16 -175 -18 -26 -50 -28 -76 -5 -17 15 -18 40 -18 375 0 229 4 366 10 379 10
18 24 19 268 19 187 0 261 -3 270 -12z m392 -300 c85 -170 157 -308 160 -308
3 0 68 129 144 288 76 158 145 297 152 310 16 24 62 30 82 10 9 -9 12 -108 12
-385 l0 -373 -25 -12 c-19 -8 -31 -8 -50 0 l-25 12 -1 267 -1 268 -121 -246
c-67 -136 -128 -254 -136 -263 -18 -21 -54 -20 -72 2 -8 9 -66 122 -129 250
-63 127 -118 232 -122 232 -4 0 -8 -114 -8 -253 0 -267 -2 -277 -46 -277 -54
0 -54 1 -54 399 0 279 3 370 12 379 7 7 26 12 43 10 29 -3 37 -16 185 -310z
m-3900 284 c47 -38 16 -112 -46 -112 -58 0 -83 63 -42 107 26 28 58 29 88 5z
m560 -227 c46 -23 100 -75 100 -95 0 -47 -52 -52 -104 -11 -107 85 -251 27
-276 -112 -32 -168 122 -279 277 -200 51 25 53 26 73 8 39 -35 21 -68 -60
-104 -51 -23 -156 -28 -211 -9 -76 25 -144 94 -168 171 -20 59 -15 159 10 217
27 62 95 125 158 145 57 18 155 14 201 -10z m1196 -3 c56 -29 100 -82 119
-144 21 -73 20 -125 -4 -138 -12 -6 -100 -10 -215 -10 -142 0 -196 -3 -196
-12 0 -6 11 -30 24 -52 50 -85 171 -116 264 -67 49 25 80 25 96 -1 16 -26 -2
-49 -64 -80 -106 -55 -255 -32 -339 53 -69 70 -93 185 -62 293 20 69 90 142
161 167 69 24 158 21 216 -9z m661 0 c50 -26 96 -80 112 -131 15 -53 15 -373
-1 -389 -17 -17 -54 -15 -72 4 -13 13 -16 43 -16 170 0 176 -11 221 -64 253
-74 44 -163 34 -215 -24 l-31 -36 0 -167 c0 -135 -3 -172 -16 -190 -18 -26
-50 -28 -76 -5 -16 15 -18 36 -18 255 0 146 4 247 10 259 16 30 77 26 92 -5
10 -23 12 -24 34 -9 73 48 184 54 261 15z m-2419 6 c9 -9 12 -80 12 -259 0
-267 -2 -279 -54 -279 -44 0 -46 10 -46 275 0 268 1 275 50 275 14 0 31 -5 38
-12z"/>
<path d="M2840 3815 l0 -345 660 0 660 0 0 345 0 345 -660 0 -660 0 0 -345z
m931 186 c36 -36 37 -70 5 -108 l-24 -28 -367 0 -367 0 -24 28 c-32 38 -31 72
5 108 l29 29 357 0 357 0 29 -29z m231 2 c41 -37 25 -110 -30 -132 -66 -28
-133 45 -99 109 25 49 88 60 129 23z"/>
<path d="M3650 2543 c-48 -18 -110 -93 -110 -133 0 -6 57 -10 165 -10 164 0
165 0 165 23 0 32 -35 84 -72 107 -32 19 -112 26 -148 13z"/>
</g>
</svg>
