<svg data-v-29081953="" xmlns="http://www.w3.org/2000/svg" viewBox="0 0 300 300"><!----><defs data-v-29081953=""><linearGradient data-v-29081953="" gradientTransform="rotate(25)" id="25dbe60d-1b02-4f2e-a738-b80049c55963" x1="0%" y1="0%" x2="100%" y2="0%"><stop data-v-29081953="" offset="0%" stop-color="#0D2175" stop-opacity="1"></stop><stop data-v-29081953="" offset="100%" stop-color="#1F1EFB" stop-opacity="1"></stop></linearGradient></defs><rect data-v-29081953="" fill="url(#25dbe60d-1b02-4f2e-a738-b80049c55963)" x="0" y="0" width="300px" height="300px" class="logo-background-square"></rect><defs data-v-29081953=""><!----></defs><g data-v-29081953="" id="9ce6889e-6e7c-446f-becc-54b661a007e8" fill="#ffffff" transform="matrix(3.110420042956076,0,0,3.110420042956076,17.200621850102245,172.51477517563396)"><path d="M6.30 1.26L6.30 1.26Q7.36 1.26 8.14 1.54L8.14 1.54L8.14 1.54Q8.92 1.82 9.72 2.46L9.72 2.46L9.72 2.46Q9.88 2.59 9.94 2.72L9.94 2.72L9.94 2.72Q10.00 2.86 10.00 3.04L10.00 3.04L10.00 3.04Q10.00 3.32 9.79 3.50L9.79 3.50L9.79 3.50Q9.59 3.68 9.32 3.68L9.32 3.68L9.32 3.68Q9.06 3.68 8.83 3.50L8.83 3.50L8.83 3.50Q8.26 3.01 7.71 2.79L7.71 2.79L7.71 2.79Q7.17 2.58 6.30 2.58L6.30 2.58L6.30 2.58Q5.21 2.58 4.29 3.15L4.29 3.15L4.29 3.15Q3.37 3.72 2.83 4.71L2.83 4.71L2.83 4.71Q2.30 5.70 2.30 6.86L2.30 6.86L2.30 6.86Q2.30 8.04 2.83 9.02L2.83 9.02L2.83 9.02Q3.37 10.00 4.29 10.57L4.29 10.57L4.29 10.57Q5.21 11.14 6.30 11.14L6.30 11.14L6.30 11.14Q7.64 11.14 8.88 10.22L8.88 10.22L8.88 10.22Q9.11 10.05 9.34 10.05L9.34 10.05L9.34 10.05Q9.60 10.05 9.78 10.24L9.78 10.24L9.78 10.24Q9.95 10.43 9.95 10.74L9.95 10.74L9.95 10.74Q9.95 11.03 9.73 11.26L9.73 11.26L9.73 11.26Q8.22 12.47 6.30 12.47L6.30 12.47L6.30 12.47Q4.80 12.47 3.56 11.73L3.56 11.73L3.56 11.73Q2.32 10.99 1.61 9.70L1.61 9.70L1.61 9.70Q0.90 8.41 0.90 6.86L0.90 6.86L0.90 6.86Q0.90 5.32 1.61 4.04L1.61 4.04L1.61 4.04Q2.32 2.76 3.56 2.01L3.56 2.01L3.56 2.01Q4.80 1.26 6.30 1.26L6.30 1.26ZM15.95 4.61L15.95 4.61Q16.91 4.61 17.68 5.03L17.68 5.03L17.68 5.03Q18.45 5.45 18.89 6.25L18.89 6.25L18.89 6.25Q19.32 7.06 19.32 8.19L19.32 8.19L19.32 11.63L19.32 11.63Q19.32 11.94 19.12 12.14L19.12 12.14L19.12 12.14Q18.91 12.35 18.61 12.35L18.61 12.35L18.61 12.35Q18.30 12.35 18.09 12.14L18.09 12.14L18.09 12.14Q17.89 11.94 17.89 11.63L17.89 11.63L17.89 8.19L17.89 8.19Q17.89 7.06 17.28 6.47L17.28 6.47L17.28 6.47Q16.67 5.89 15.67 5.89L15.67 5.89L15.67 5.89Q15.08 5.89 14.60 6.13L14.60 6.13L14.60 6.13Q14.11 6.37 13.84 6.78L13.84 6.78L13.84 6.78Q13.57 7.18 13.57 7.69L13.57 7.69L13.57 11.63L13.57 11.63Q13.57 11.94 13.37 12.14L13.37 12.14L13.37 12.14Q13.17 12.35 12.85 12.35L12.85 12.35L12.85 12.35Q12.54 12.35 12.34 12.14L12.34 12.14L12.34 12.14Q12.14 11.94 12.14 11.63L12.14 11.63L12.14 2.11L12.14 2.11Q12.14 1.79 12.34 1.60L12.34 1.60L12.34 1.60Q12.54 1.40 12.85 1.40L12.85 1.40L12.85 1.40Q13.17 1.40 13.37 1.60L13.37 1.60L13.37 1.60Q13.57 1.79 13.57 2.11L13.57 2.11L13.57 5.54L13.57 5.54Q14.01 5.10 14.63 4.85L14.63 4.85L14.63 4.85Q15.25 4.61 15.95 4.61L15.95 4.61ZM21.84 5.39L21.84 5.39Q21.84 5.07 22.04 4.87L22.04 4.87L22.04 4.87Q22.25 4.68 22.55 4.68L22.55 4.68L22.55 4.68Q22.88 4.68 23.07 4.87L23.07 4.87L23.07 4.87Q23.27 5.07 23.27 5.39L23.27 5.39L23.27 11.62L23.27 11.62Q23.27 11.93 23.07 12.13L23.07 12.13L23.07 12.13Q22.88 12.33 22.55 12.33L22.55 12.33L22.55 12.33Q22.25 12.33 22.04 12.13L22.04 12.13L22.04 12.13Q21.84 11.93 21.84 11.62L21.84 11.62L21.84 5.39ZM22.55 1.58L22.55 1.58Q22.93 1.58 23.20 1.85L23.20 1.85L23.20 1.85Q23.48 2.13 23.48 2.51L23.48 2.51L23.48 2.51Q23.48 2.88 23.20 3.16L23.20 3.16L23.20 3.16Q22.93 3.43 22.55 3.43L22.55 3.43L22.55 3.43Q22.18 3.43 21.90 3.16L21.90 3.16L21.90 3.16Q21.63 2.88 21.63 2.51L21.63 2.51L21.63 2.51Q21.63 2.13 21.90 1.85L21.90 1.85L21.90 1.85Q22.18 1.58 22.55 1.58L22.55 1.58ZM29.33 4.62L29.33 4.62Q30.98 4.62 32.07 5.88L32.07 5.88L32.07 5.88Q32.21 6.03 32.21 6.24L32.21 6.24L32.21 6.24Q32.21 6.55 31.91 6.76L31.91 6.76L31.91 6.76Q31.77 6.86 31.58 6.86L31.58 6.86L31.58 6.86Q31.26 6.86 31.04 6.61L31.04 6.61L31.04 6.61Q30.69 6.23 30.27 6.05L30.27 6.05L30.27 6.05Q29.86 5.88 29.33 5.88L29.33 5.88L29.33 5.88Q28.25 5.88 27.58 6.60L27.58 6.60L27.58 6.60Q26.91 7.32 26.91 8.51L26.91 8.51L26.91 8.51Q26.91 9.27 27.22 9.86L27.22 9.86L27.22 9.86Q27.54 10.46 28.11 10.79L28.11 10.79L28.11 10.79Q28.67 11.13 29.40 11.13L29.40 11.13L29.40 11.13Q30.35 11.13 30.94 10.64L30.94 10.64L30.94 10.64Q31.21 10.44 31.46 10.44L31.46 10.44L31.46 10.44Q31.65 10.44 31.82 10.57L31.82 10.57L31.82 10.57Q32.09 10.79 32.09 11.07L32.09 11.07L32.09 11.07Q32.09 11.28 31.92 11.45L31.92 11.45L31.92 11.45Q30.91 12.39 29.40 12.39L29.40 12.39L29.40 12.39Q28.29 12.39 27.41 11.89L27.41 11.89L27.41 11.89Q26.53 11.38 26.03 10.49L26.03 10.49L26.03 10.49Q25.54 9.60 25.54 8.51L25.54 8.51L25.54 8.51Q25.54 7.39 26.02 6.50L26.02 6.50L26.02 6.50Q26.50 5.61 27.37 5.12L27.37 5.12L27.37 5.12Q28.24 4.62 29.33 4.62L29.33 4.62ZM40.12 11.33L40.12 11.33Q40.28 11.49 40.28 11.75L40.28 11.75L40.28 11.75Q40.28 12.05 40.03 12.26L40.03 12.26L40.03 12.26Q39.82 12.43 39.58 12.43L39.58 12.43L39.58 12.43Q39.27 12.43 39.07 12.18L39.07 12.18L36.41 8.89L35.71 9.51L35.71 11.65L35.71 11.65Q35.71 11.96 35.52 12.14L35.52 12.14L35.52 12.14Q35.34 12.33 35.03 12.33L35.03 12.33L35.03 12.33Q34.72 12.33 34.53 12.14L34.53 12.14L34.53 12.14Q34.34 11.96 34.34 11.65L34.34 11.65L34.34 2.09L34.34 2.09Q34.34 1.78 34.53 1.59L34.53 1.59L34.53 1.59Q34.72 1.40 35.03 1.40L35.03 1.40L35.03 1.40Q35.34 1.40 35.52 1.59L35.52 1.59L35.52 1.59Q35.71 1.78 35.71 2.09L35.71 2.09L35.71 7.78L39.12 4.75L39.12 4.75Q39.30 4.56 39.55 4.56L39.55 4.56L39.55 4.56Q39.84 4.56 40.03 4.79L40.03 4.79L40.03 4.79Q40.21 4.97 40.21 5.22L40.21 5.22L40.21 5.22Q40.21 5.52 39.98 5.70L39.98 5.70L37.41 7.99L40.12 11.33ZM49.18 8.39L49.18 8.39Q49.18 8.65 49 8.83L49 8.83L49 8.83Q48.82 9.00 48.54 9.00L48.54 9.00L43.22 9.00L43.22 9.00Q43.37 9.98 44.11 10.58L44.11 10.58L44.11 10.58Q44.84 11.19 45.91 11.19L45.91 11.19L45.91 11.19Q46.33 11.19 46.78 11.03L46.78 11.03L46.78 11.03Q47.24 10.88 47.53 10.65L47.53 10.65L47.53 10.65Q47.73 10.50 47.99 10.50L47.99 10.50L47.99 10.50Q48.26 10.50 48.41 10.64L48.41 10.64L48.41 10.64Q48.66 10.85 48.66 11.12L48.66 11.12L48.66 11.12Q48.66 11.37 48.44 11.54L48.44 11.54L48.44 11.54Q47.96 11.91 47.26 12.15L47.26 12.15L47.26 12.15Q46.55 12.39 45.91 12.39L45.91 12.39L45.91 12.39Q44.76 12.39 43.85 11.89L43.85 11.89L43.85 11.89Q42.94 11.40 42.43 10.51L42.43 10.51L42.43 10.51Q41.92 9.63 41.92 8.51L41.92 8.51L41.92 8.51Q41.92 7.39 42.40 6.50L42.40 6.50L42.40 6.50Q42.88 5.61 43.74 5.12L43.74 5.12L43.74 5.12Q44.60 4.62 45.70 4.62L45.70 4.62L45.70 4.62Q46.77 4.62 47.56 5.10L47.56 5.10L47.56 5.10Q48.34 5.57 48.76 6.43L48.76 6.43L48.76 6.43Q49.18 7.28 49.18 8.39L49.18 8.39ZM45.70 5.82L45.70 5.82Q44.67 5.82 44.04 6.38L44.04 6.38L44.04 6.38Q43.40 6.94 43.23 7.88L43.23 7.88L47.89 7.88L47.89 7.88Q47.77 6.94 47.19 6.38L47.19 6.38L47.19 6.38Q46.62 5.82 45.70 5.82L45.70 5.82ZM54.81 4.61L54.81 4.61Q55.78 4.61 56.55 5.03L56.55 5.03L56.55 5.03Q57.32 5.45 57.75 6.25L57.75 6.25L57.75 6.25Q58.18 7.06 58.18 8.19L58.18 8.19L58.18 11.63L58.18 11.63Q58.18 11.94 57.98 12.14L57.98 12.14L57.98 12.14Q57.78 12.35 57.47 12.35L57.47 12.35L57.47 12.35Q57.16 12.35 56.96 12.14L56.96 12.14L56.96 12.14Q56.76 11.94 56.76 11.63L56.76 11.63L56.76 8.19L56.76 8.19Q56.76 7.06 56.15 6.47L56.15 6.47L56.15 6.47Q55.54 5.89 54.53 5.89L54.53 5.89L54.53 5.89Q53.94 5.89 53.46 6.13L53.46 6.13L53.46 6.13Q52.98 6.37 52.70 6.78L52.70 6.78L52.70 6.78Q52.43 7.18 52.43 7.69L52.43 7.69L52.43 11.63L52.43 11.63Q52.43 11.94 52.23 12.14L52.23 12.14L52.23 12.14Q52.04 12.35 51.72 12.35L51.72 12.35L51.72 12.35Q51.41 12.35 51.21 12.14L51.21 12.14L51.21 12.14Q51.00 11.94 51.00 11.63L51.00 11.63L51.00 5.39L51.00 5.39Q51.00 5.07 51.21 4.87L51.21 4.87L51.21 4.87Q51.41 4.68 51.72 4.68L51.72 4.68L51.72 4.68Q52.04 4.68 52.23 4.87L52.23 4.87L52.23 4.87Q52.43 5.07 52.43 5.39L52.43 5.39L52.43 5.54L52.43 5.54Q52.88 5.10 53.49 4.85L53.49 4.85L53.49 4.85Q54.11 4.61 54.81 4.61L54.81 4.61ZM69.38 6.15L69.38 6.15Q69.69 6.15 69.90 6.33L69.90 6.33L69.90 6.33Q70.10 6.52 70.10 6.82L70.10 6.82L70.10 6.82Q70.10 7.11 69.90 7.30L69.90 7.30L69.90 7.30Q69.69 7.49 69.38 7.49L69.38 7.49L65.37 7.49L65.37 11.61L65.37 11.61Q65.37 11.91 65.16 12.12L65.16 12.12L65.16 12.12Q64.95 12.33 64.64 12.33L64.64 12.33L64.64 12.33Q64.33 12.33 64.12 12.12L64.12 12.12L64.12 12.12Q63.91 11.91 63.91 11.61L63.91 11.61L63.91 2.13L63.91 2.13Q63.91 1.81 64.12 1.60L64.12 1.60L64.12 1.60Q64.33 1.40 64.64 1.40L64.64 1.40L70.97 1.40L70.97 1.40Q71.29 1.40 71.48 1.59L71.48 1.59L71.48 1.59Q71.68 1.78 71.68 2.09L71.68 2.09L71.68 2.09Q71.68 2.38 71.48 2.56L71.48 2.56L71.48 2.56Q71.29 2.74 70.97 2.74L70.97 2.74L65.37 2.74L65.37 6.15L69.38 6.15ZM83.76 1.40L83.76 1.40Q84.07 1.40 84.28 1.61L84.28 1.61L84.28 1.61Q84.49 1.82 84.49 2.13L84.49 2.13L84.49 11.61L84.49 11.61Q84.49 11.91 84.27 12.12L84.27 12.12L84.27 12.12Q84.06 12.33 83.76 12.33L83.76 12.33L83.76 12.33Q83.45 12.33 83.24 12.12L83.24 12.12L83.24 12.12Q83.03 11.91 83.03 11.61L83.03 11.61L83.03 4.65L79.65 11.55L79.65 11.55Q79.41 11.91 79.02 11.91L79.02 11.91L79.02 11.91Q78.55 11.91 78.34 11.48L78.34 11.48L75.00 4.77L75.00 11.61L75.00 11.61Q75.00 11.91 74.79 12.12L74.79 12.12L74.79 12.12Q74.58 12.33 74.27 12.33L74.27 12.33L74.27 12.33Q73.96 12.33 73.75 12.12L73.75 12.12L73.75 12.12Q73.54 11.91 73.54 11.61L73.54 11.61L73.54 2.13L73.54 2.13Q73.54 1.82 73.75 1.61L73.75 1.61L73.75 1.61Q73.96 1.40 74.27 1.40L74.27 1.40L74.27 1.40Q74.69 1.40 74.91 1.79L74.91 1.79L79.07 10.12L83.12 1.79L83.12 1.79Q83.34 1.40 83.76 1.40L83.76 1.40Z"></path></g><defs data-v-29081953=""><!----></defs><g data-v-29081953="" id="1aa56e26-80a0-48dd-a664-6cf34a4aaa4a" stroke="none" fill="#ffffff" transform="matrix(0.8746123014579855,0,0,0.8746123014579855,105.9304736612001,80.53568266949807)"><path d="M82.5 39h-6.44c-.045-.032-.081-.072-.127-.102L31.516 9.981a4 4 0 0 0-4.366 6.704L61.427 39H18.275a8 8 0 0 0-8 8v34.066a8 8 0 0 0 8 8H82.5a8 8 0 0 0 8-8V47a8 8 0 0 0-8-8zm0 42.066H18.275V47H82.5v34.066z"></path><circle cx="72.167" cy="57.583" r="4"></circle><path d="M28.5 61.583H61a4 4 0 0 0 0-8H28.5a4 4 0 0 0 0 8z"></path></g><!----></svg>